<?xml version="1.0" encoding="UTF-8" standalone="no"?>
<svg
   xmlns:dc="http://purl.org/dc/elements/1.1/"
   xmlns:cc="http://creativecommons.org/ns#"
   xmlns:rdf="http://www.w3.org/1999/02/22-rdf-syntax-ns#"
   xmlns:svg="http://www.w3.org/2000/svg"
   xmlns="http://www.w3.org/2000/svg"
   xmlns:sodipodi="http://sodipodi.sourceforge.net/DTD/sodipodi-0.dtd"
   xmlns:inkscape="http://www.inkscape.org/namespaces/inkscape"
   viewBox="0 0 29 30"
   version="1.1"
   id="svg2"
   inkscape:version="0.48.1 r9760"
   width="100%"
   height="100%"
   sodipodi:docname="icon.svg">
  <metadata
     id="metadata10">
    <rdf:RDF>
      <cc:Work
         rdf:about="">
        <dc:format>image/svg+xml</dc:format>
        <dc:type
           rdf:resource="http://purl.org/dc/dcmitype/StillImage" />
      </cc:Work>
    </rdf:RDF>
  </metadata>
  <defs
     id="defs8" />
  <sodipodi:namedview
     pagecolor="#ffffff"
     bordercolor="#666666"
     borderopacity="1"
     objecttolerance="10"
     gridtolerance="10"
     guidetolerance="10"
     inkscape:pageopacity="0"
     inkscape:pageshadow="2"
     inkscape:window-width="1280"
     inkscape:window-height="928"
     id="namedview6"
     showgrid="false"
     inkscape:zoom="9.7333333"
     inkscape:cx="15"
     inkscape:cy="15"
     inkscape:window-x="1280"
     inkscape:window-y="0"
     inkscape:window-maximized="0"
     inkscape:current-layer="svg2" />
  <path
     d="M17.41,20.395l-0.778-2.723c0.228-0.2,0.442-0.414,0.644-0.643l2.721,0.778c0.287-0.418,0.534-0.862,0.755-1.323l-2.025-1.96c0.097-0.288,0.181-0.581,0.241-0.883l2.729-0.684c0.02-0.252,0.039-0.505,0.039-0.763s-0.02-0.51-0.039-0.762l-2.729-0.684c-0.061-0.302-0.145-0.595-0.241-0.883l2.026-1.96c-0.222-0.46-0.469-0.905-0.756-1.323l-2.721,0.777c-0.201-0.228-0.416-0.442-0.644-0.643l0.778-2.722c-0.418-0.286-0.863-0.534-1.324-0.755l-1.96,2.026c-0.287-0.097-0.581-0.18-0.883-0.241l-0.683-2.73c-0.253-0.019-0.505-0.039-0.763-0.039s-0.51,0.02-0.762,0.039l-0.684,2.73c-0.302,0.061-0.595,0.144-0.883,0.241l-1.96-2.026C7.048,3.463,6.604,3.71,6.186,3.997l0.778,2.722C6.736,6.919,6.521,7.134,6.321,7.361L3.599,6.583C3.312,7.001,3.065,7.446,2.844,7.907l2.026,1.96c-0.096,0.288-0.18,0.581-0.241,0.883l-2.73,0.684c-0.019,0.252-0.039,0.505-0.039,0.762s0.02,0.51,0.039,0.763l2.73,0.684c0.061,0.302,0.145,0.595,0.241,0.883l-2.026,1.96c0.221,0.46,0.468,0.905,0.755,1.323l2.722-0.778c0.2,0.229,0.415,0.442,0.643,0.643l-0.778,2.723c0.418,0.286,0.863,0.533,1.323,0.755l1.96-2.026c0.288,0.097,0.581,0.181,0.883,0.241l0.684,2.729c0.252,0.02,0.505,0.039,0.763,0.039s0.51-0.02,0.763-0.039l0.683-2.729c0.302-0.061,0.596-0.145,0.883-0.241l1.96,2.026C16.547,20.928,16.992,20.681,17.41,20.395zM11.798,15.594c-1.877,0-3.399-1.522-3.399-3.399s1.522-3.398,3.399-3.398s3.398,1.521,3.398,3.398S13.675,15.594,11.798,15.594zM27.29,22.699c0.019-0.547-0.06-1.104-0.23-1.654l1.244-1.773c-0.188-0.35-0.4-0.682-0.641-0.984l-2.122,0.445c-0.428-0.364-0.915-0.648-1.436-0.851l-0.611-2.079c-0.386-0.068-0.777-0.105-1.173-0.106l-0.974,1.936c-0.279,0.054-0.558,0.128-0.832,0.233c-0.257,0.098-0.497,0.22-0.727,0.353L17.782,17.4c-0.297,0.262-0.568,0.545-0.813,0.852l0.907,1.968c-0.259,0.495-0.437,1.028-0.519,1.585l-1.891,1.06c0.019,0.388,0.076,0.776,0.164,1.165l2.104,0.519c0.231,0.524,0.541,0.993,0.916,1.393l-0.352,2.138c0.32,0.23,0.66,0.428,1.013,0.6l1.715-1.32c0.536,0.141,1.097,0.195,1.662,0.15l1.452,1.607c0.2-0.057,0.399-0.118,0.596-0.193c0.175-0.066,0.34-0.144,0.505-0.223l0.037-2.165c0.455-0.339,0.843-0.747,1.152-1.206l2.161-0.134c0.152-0.359,0.279-0.732,0.368-1.115L27.29,22.699zM23.127,24.706c-1.201,0.458-2.545-0.144-3.004-1.345s0.143-2.546,1.344-3.005c1.201-0.458,2.547,0.144,3.006,1.345C24.931,22.902,24.328,24.247,23.127,24.706z"
     id="path4"
     inkscape:connector-curvature="0"
     style="fill:#000000;stroke:none" />
</svg>
