<?xml version="1.0" encoding="UTF-8" standalone="no"?>
<svg
   xmlns:dc="http://purl.org/dc/elements/1.1/"
   xmlns:cc="http://creativecommons.org/ns#"
   xmlns:rdf="http://www.w3.org/1999/02/22-rdf-syntax-ns#"
   xmlns:svg="http://www.w3.org/2000/svg"
   xmlns="http://www.w3.org/2000/svg"
   xmlns:sodipodi="http://sodipodi.sourceforge.net/DTD/sodipodi-0.dtd"
   xmlns:inkscape="http://www.inkscape.org/namespaces/inkscape"
   viewBox="0 0 29 35"
   version="1.1"
   id="svg2"
   inkscape:version="0.48.1 r9760"
   width="100%"
   height="100%"
   sodipodi:docname="icontest.svg">
  <metadata
     id="metadata10">
    <rdf:RDF>
      <cc:Work
         rdf:about="">
        <dc:format>image/svg+xml</dc:format>
        <dc:type
           rdf:resource="http://purl.org/dc/dcmitype/StillImage" />
        <dc:title />
      </cc:Work>
    </rdf:RDF>
  </metadata>
  <defs
     id="defs8" />
  <sodipodi:namedview
     pagecolor="#ffffff"
     bordercolor="#666666"
     borderopacity="1"
     objecttolerance="10"
     gridtolerance="10"
     guidetolerance="10"
     inkscape:pageopacity="0"
     inkscape:pageshadow="2"
     inkscape:window-width="1280"
     inkscape:window-height="928"
     id="namedview6"
     showgrid="false"
     inkscape:zoom="9.7333333"
     inkscape:cx="49.012294"
     inkscape:cy="68.424658"
     inkscape:window-x="1280"
     inkscape:window-y="0"
     inkscape:window-maximized="0"
     inkscape:current-layer="svg2" />
  <path
     d="m 15.228488,7.492932 c 1.207183,0.001 1.127466,0.419459 1.500548,0.364521 L 15.556439,10.09863 23.850079,7.941096 22.007588,3.283042 20.782517,0.06534301 19.35867,2.62048 c -1.512662,-0.563 -3.554154,-0.467041 -5.259337,-0.467041 -7.8491467,0 -14.10842876,7.196178 -14.10842876,15.187178 0,3.317 1.10797606,6.364 2.95165606,8.805 l 4.934919,-2.819137 c -1.491053,-1.973 -2.490585,-3.510342 -2.495497,-6.190342 0.0108,-6.461 3.501181,-9.633206 9.8465057,-9.643206 z m 10.233098,1.045685 -4.93492,2.922877 c 1.491053,1.972 1.771408,4.433 1.775337,5.881123 0.194669,5.021644 -3.295702,9.529465 -8.921848,9.334986 -1.124674,-0.002 -0.45366,0.01748 -1.479127,-0.29352 l 1.42974,-2.253918 -8.1909017,2.260274 1.122331,4.245096 1.328793,4.145356 1.677456,-2.641137 c 1.4507817,0.514 3.3119347,0.287301 4.9336267,0.288301 7.850129,-0.002 14.211169,-7.095438 14.213133,-15.086438 -0.002,-3.317 -1.110922,-6.363 -2.95362,-8.803 z"
     id="path4"
     inkscape:connector-curvature="0"
     style="fill:#000000;stroke:none"
     sodipodi:nodetypes="cccccccssccccccccccccccccc" />
</svg>
